G04*
G04 #@! TF.GenerationSoftware,Altium Limited,CircuitMaker,2.2.1 (2.2.1.6)*
G04*
G04 Layer_Color=8150272*
%FSLAX25Y25*%
%MOIN*%
G70*
G04*
G04 #@! TF.SameCoordinates,C44E2A56-7628-4A00-ACF1-40A52C7EA1B0*
G04*
G04*
G04 #@! TF.FilePolarity,Negative*
G04*
G01*
G75*
%ADD12O,0.06803X0.08677*%
%ADD13O,0.12614X0.06803*%
%ADD14C,0.08303*%
%ADD15R,0.08303X0.08303*%
%ADD24R,0.05921X0.07102*%
G04:AMPARAMS|DCode=25|XSize=67.09mil|YSize=59.21mil|CornerRadius=11.69mil|HoleSize=0mil|Usage=FLASHONLY|Rotation=90.000|XOffset=0mil|YOffset=0mil|HoleType=Round|Shape=RoundedRectangle|*
%AMROUNDEDRECTD25*
21,1,0.06709,0.03583,0,0,90.0*
21,1,0.04370,0.05921,0,0,90.0*
1,1,0.02339,0.01791,0.02185*
1,1,0.02339,0.01791,-0.02185*
1,1,0.02339,-0.01791,-0.02185*
1,1,0.02339,-0.01791,0.02185*
%
%ADD25ROUNDEDRECTD25*%
D12*
X415000Y255000D02*
D03*
X405000D02*
D03*
X395000D02*
D03*
X385000D02*
D03*
D13*
X440000Y330000D02*
D03*
Y320000D02*
D03*
Y310000D02*
D03*
Y300000D02*
D03*
Y290000D02*
D03*
Y280000D02*
D03*
Y270000D02*
D03*
Y260000D02*
D03*
Y250000D02*
D03*
Y240000D02*
D03*
Y230000D02*
D03*
Y220000D02*
D03*
X360000D02*
D03*
Y230000D02*
D03*
Y240000D02*
D03*
Y250000D02*
D03*
Y260000D02*
D03*
Y270000D02*
D03*
Y280000D02*
D03*
Y290000D02*
D03*
Y300000D02*
D03*
Y310000D02*
D03*
Y320000D02*
D03*
Y330000D02*
D03*
Y340000D02*
D03*
Y350000D02*
D03*
Y360000D02*
D03*
Y370000D02*
D03*
D14*
X385000Y215000D02*
D03*
X395000D02*
D03*
X405000D02*
D03*
D15*
X415000D02*
D03*
D24*
X404882Y347205D02*
D03*
X413543D02*
D03*
X404882Y357205D02*
D03*
X413543D02*
D03*
D25*
X386260D02*
D03*
X393740D02*
D03*
X386260Y347205D02*
D03*
X393740D02*
D03*
M02*
