M48
;Layer_Color=6321
;FILE_FORMAT=2:5
INCH,LZ
;TYPE=PLATED
T1F00S00C0.02756
T2F00S00C0.03150
T3F00S00C0.03937
T4F00S00C0.04331
%
T01
X0371355Y0215741
X0387795Y0233268
X0397638Y0268701
X0377946Y027774
X041437Y028937
X0425Y0215
X0414173Y0337402
X0435Y0345
X043Y038
X0374016Y0379921
X0391339Y0322047
T02
X0385Y0215
X0395
X0405
X0415
T03
X0385Y0255
X0395
X0405
X0415
T04
X036Y022
Y023
Y024
Y025
Y026
Y027
Y028
Y029
Y03
Y031
X044
Y03
Y029
Y028
Y027
Y026
Y025
Y024
Y023
Y022
Y032
Y033
X036
Y032
Y034
Y035
Y036
Y037
M30
