G04*
G04 #@! TF.GenerationSoftware,Altium Limited,CircuitMaker,2.2.1 (2.2.1.6)*
G04*
G04 Layer_Physical_Order=1*
G04 Layer_Color=25308*
%FSLAX25Y25*%
%MOIN*%
G70*
G04*
G04 #@! TF.SameCoordinates,C44E2A56-7628-4A00-ACF1-40A52C7EA1B0*
G04*
G04*
G04 #@! TF.FilePolarity,Positive*
G04*
G01*
G75*
%ADD10C,0.01968*%
%ADD16O,0.06000X0.07874*%
%ADD17O,0.11811X0.06000*%
%ADD18C,0.07500*%
%ADD19R,0.07500X0.07500*%
%ADD20C,0.05000*%
G36*
X445000Y334108D02*
X444584Y333830D01*
X443997Y334073D01*
X442906Y334217D01*
X437094D01*
X436003Y334073D01*
X434986Y333652D01*
X434113Y332982D01*
X433442Y332109D01*
X433021Y331091D01*
X432877Y330000D01*
X433021Y328908D01*
X433442Y327891D01*
X434113Y327018D01*
X434986Y326348D01*
X436003Y325926D01*
X437094Y325783D01*
X442906D01*
X443997Y325926D01*
X444584Y326170D01*
X445000Y325892D01*
Y324108D01*
X444584Y323830D01*
X443997Y324074D01*
X442906Y324217D01*
X437094D01*
X436003Y324074D01*
X434986Y323652D01*
X434113Y322982D01*
X433442Y322109D01*
X433021Y321092D01*
X432877Y320000D01*
X433021Y318909D01*
X433442Y317891D01*
X434113Y317018D01*
X434986Y316348D01*
X436003Y315927D01*
X437094Y315783D01*
X442906D01*
X443997Y315927D01*
X444584Y316170D01*
X445000Y315892D01*
Y314108D01*
X444584Y313830D01*
X443997Y314073D01*
X442906Y314217D01*
X437094D01*
X436003Y314073D01*
X434986Y313652D01*
X434113Y312982D01*
X433442Y312109D01*
X433021Y311091D01*
X432877Y310000D01*
X433021Y308909D01*
X433442Y307891D01*
X434113Y307018D01*
X434986Y306348D01*
X436003Y305926D01*
X437094Y305783D01*
X442906D01*
X443997Y305926D01*
X444584Y306170D01*
X445000Y305892D01*
Y304108D01*
X444584Y303830D01*
X443997Y304074D01*
X442906Y304217D01*
X437094D01*
X436003Y304074D01*
X434986Y303652D01*
X434113Y302982D01*
X433442Y302109D01*
X433021Y301092D01*
X432877Y300000D01*
X433021Y298908D01*
X433442Y297891D01*
X434113Y297018D01*
X434986Y296348D01*
X436003Y295926D01*
X437094Y295783D01*
X442906D01*
X443997Y295926D01*
X444584Y296170D01*
X445000Y295892D01*
Y294108D01*
X444584Y293830D01*
X443997Y294074D01*
X442906Y294217D01*
X437094D01*
X436003Y294074D01*
X434986Y293652D01*
X434113Y292982D01*
X433442Y292109D01*
X433021Y291091D01*
X432877Y290000D01*
X433021Y288909D01*
X433442Y287891D01*
X434113Y287018D01*
X434986Y286348D01*
X436003Y285927D01*
X437094Y285783D01*
X442906D01*
X443997Y285927D01*
X444584Y286170D01*
X445000Y285892D01*
Y284108D01*
X444584Y283830D01*
X443997Y284073D01*
X442906Y284217D01*
X437094D01*
X436003Y284073D01*
X434986Y283652D01*
X434113Y282982D01*
X433442Y282109D01*
X433021Y281091D01*
X432877Y280000D01*
X433021Y278908D01*
X433442Y277891D01*
X434113Y277018D01*
X434986Y276348D01*
X436003Y275926D01*
X437094Y275783D01*
X442906D01*
X443997Y275926D01*
X444584Y276170D01*
X445000Y275892D01*
Y274108D01*
X444584Y273830D01*
X443997Y274074D01*
X442906Y274217D01*
X437094D01*
X436003Y274074D01*
X434986Y273652D01*
X434113Y272982D01*
X433442Y272109D01*
X433021Y271092D01*
X432877Y270000D01*
X433021Y268909D01*
X433442Y267891D01*
X434113Y267018D01*
X434986Y266348D01*
X436003Y265927D01*
X437094Y265783D01*
X442906D01*
X443997Y265927D01*
X444584Y266170D01*
X445000Y265892D01*
Y264108D01*
X444584Y263830D01*
X443997Y264073D01*
X442906Y264217D01*
X437094D01*
X436003Y264073D01*
X434986Y263652D01*
X434113Y262982D01*
X433442Y262109D01*
X433021Y261091D01*
X432877Y260000D01*
X433021Y258909D01*
X433442Y257891D01*
X434113Y257018D01*
X434986Y256348D01*
X436003Y255926D01*
X437094Y255783D01*
X442906D01*
X443997Y255926D01*
X444584Y256170D01*
X445000Y255892D01*
Y254108D01*
X444584Y253830D01*
X443997Y254074D01*
X442906Y254217D01*
X437094D01*
X436003Y254074D01*
X434986Y253652D01*
X434113Y252982D01*
X433442Y252109D01*
X433021Y251092D01*
X432877Y250000D01*
X433021Y248908D01*
X433442Y247891D01*
X434113Y247018D01*
X434986Y246348D01*
X436003Y245926D01*
X437094Y245783D01*
X442906D01*
X443997Y245926D01*
X444584Y246170D01*
X445000Y245892D01*
Y244108D01*
X444584Y243830D01*
X443997Y244074D01*
X442906Y244217D01*
X437094D01*
X436003Y244074D01*
X434986Y243652D01*
X434113Y242982D01*
X433442Y242109D01*
X433021Y241091D01*
X432877Y240000D01*
X433021Y238909D01*
X433442Y237891D01*
X434113Y237018D01*
X434986Y236348D01*
X436003Y235927D01*
X437094Y235783D01*
X442906D01*
X443997Y235927D01*
X444584Y236170D01*
X445000Y235892D01*
Y234108D01*
X444584Y233830D01*
X443997Y234073D01*
X442906Y234217D01*
X437094D01*
X436003Y234073D01*
X434986Y233652D01*
X434113Y232982D01*
X433518Y232208D01*
X400000D01*
X399155Y232040D01*
X398439Y231561D01*
X386564Y219686D01*
X385649Y219931D01*
X384351D01*
X383097Y219595D01*
X381972Y218946D01*
X381054Y218028D01*
X380405Y216903D01*
X380069Y215649D01*
Y214351D01*
X380405Y213097D01*
X381054Y211972D01*
X381972Y211054D01*
X382932Y210500D01*
X382798Y210000D01*
X355000D01*
Y215892D01*
X355416Y216170D01*
X356003Y215927D01*
X357095Y215783D01*
X362906D01*
X363997Y215927D01*
X365014Y216348D01*
X365887Y217018D01*
X366558Y217891D01*
X366979Y218909D01*
X367123Y220000D01*
X366979Y221092D01*
X366558Y222109D01*
X365887Y222982D01*
X365014Y223652D01*
X363997Y224074D01*
X362906Y224217D01*
X357095D01*
X356003Y224074D01*
X355416Y223830D01*
X355000Y224108D01*
Y225892D01*
X355416Y226170D01*
X356003Y225926D01*
X357095Y225783D01*
X362906D01*
X363997Y225926D01*
X365014Y226348D01*
X365887Y227018D01*
X366558Y227891D01*
X366979Y228908D01*
X367123Y230000D01*
X366979Y231091D01*
X366558Y232109D01*
X365887Y232982D01*
X365014Y233652D01*
X363997Y234073D01*
X362906Y234217D01*
X357095D01*
X356003Y234073D01*
X355416Y233830D01*
X355000Y234108D01*
Y235892D01*
X355416Y236170D01*
X356003Y235927D01*
X357095Y235783D01*
X362906D01*
X363997Y235927D01*
X365014Y236348D01*
X365887Y237018D01*
X366558Y237891D01*
X366979Y238909D01*
X367123Y240000D01*
X366979Y241091D01*
X366558Y242109D01*
X365887Y242982D01*
X365014Y243652D01*
X363997Y244074D01*
X362906Y244217D01*
X357095D01*
X356003Y244074D01*
X355416Y243830D01*
X355000Y244108D01*
Y245892D01*
X355416Y246170D01*
X356003Y245926D01*
X357095Y245783D01*
X362906D01*
X363997Y245926D01*
X365014Y246348D01*
X365887Y247018D01*
X366558Y247891D01*
X366979Y248908D01*
X367123Y250000D01*
X366979Y251092D01*
X366558Y252109D01*
X365887Y252982D01*
X365014Y253652D01*
X363997Y254074D01*
X362906Y254217D01*
X357095D01*
X356003Y254074D01*
X355416Y253830D01*
X355000Y254108D01*
Y255892D01*
X355416Y256170D01*
X356003Y255926D01*
X357095Y255783D01*
X362906D01*
X363997Y255926D01*
X365014Y256348D01*
X365887Y257018D01*
X366558Y257891D01*
X366979Y258909D01*
X367123Y260000D01*
X366979Y261091D01*
X366558Y262109D01*
X365887Y262982D01*
X365014Y263652D01*
X363997Y264073D01*
X362906Y264217D01*
X357095D01*
X356003Y264073D01*
X355416Y263830D01*
X355000Y264108D01*
Y265892D01*
X355416Y266170D01*
X356003Y265927D01*
X357095Y265783D01*
X362906D01*
X363997Y265927D01*
X365014Y266348D01*
X365887Y267018D01*
X366558Y267891D01*
X366979Y268909D01*
X367123Y270000D01*
X366979Y271092D01*
X366558Y272109D01*
X365887Y272982D01*
X365014Y273652D01*
X363997Y274074D01*
X362906Y274217D01*
X357095D01*
X356003Y274074D01*
X355416Y273830D01*
X355000Y274108D01*
Y275892D01*
X355416Y276170D01*
X356003Y275926D01*
X357095Y275783D01*
X362906D01*
X363997Y275926D01*
X365014Y276348D01*
X365887Y277018D01*
X366558Y277891D01*
X366979Y278908D01*
X367123Y280000D01*
X366979Y281091D01*
X366558Y282109D01*
X365887Y282982D01*
X365014Y283652D01*
X363997Y284073D01*
X362906Y284217D01*
X357095D01*
X356003Y284073D01*
X355416Y283830D01*
X355000Y284108D01*
Y285892D01*
X355416Y286170D01*
X356003Y285927D01*
X357095Y285783D01*
X362906D01*
X363997Y285927D01*
X365014Y286348D01*
X365887Y287018D01*
X366558Y287891D01*
X366979Y288909D01*
X367123Y290000D01*
X366979Y291091D01*
X366558Y292109D01*
X365887Y292982D01*
X365014Y293652D01*
X363997Y294074D01*
X362906Y294217D01*
X357095D01*
X356003Y294074D01*
X355416Y293830D01*
X355000Y294108D01*
Y295892D01*
X355416Y296170D01*
X356003Y295926D01*
X357095Y295783D01*
X362906D01*
X363997Y295926D01*
X365014Y296348D01*
X365887Y297018D01*
X366558Y297891D01*
X366979Y298908D01*
X367123Y300000D01*
X366979Y301092D01*
X366558Y302109D01*
X365887Y302982D01*
X365014Y303652D01*
X363997Y304074D01*
X362906Y304217D01*
X357095D01*
X356003Y304074D01*
X355416Y303830D01*
X355000Y304108D01*
Y305892D01*
X355416Y306170D01*
X356003Y305926D01*
X357095Y305783D01*
X362906D01*
X363997Y305926D01*
X365014Y306348D01*
X365887Y307018D01*
X366558Y307891D01*
X366979Y308909D01*
X367123Y310000D01*
X366979Y311091D01*
X366558Y312109D01*
X365887Y312982D01*
X365014Y313652D01*
X363997Y314073D01*
X362906Y314217D01*
X357095D01*
X356003Y314073D01*
X355416Y313830D01*
X355000Y314108D01*
Y315892D01*
X355416Y316170D01*
X356003Y315927D01*
X357095Y315783D01*
X362906D01*
X363997Y315927D01*
X365014Y316348D01*
X365887Y317018D01*
X366558Y317891D01*
X366979Y318909D01*
X367123Y320000D01*
X366979Y321092D01*
X366558Y322109D01*
X365887Y322982D01*
X365014Y323652D01*
X363997Y324074D01*
X362906Y324217D01*
X357095D01*
X356003Y324074D01*
X355416Y323830D01*
X355000Y324108D01*
Y325892D01*
X355416Y326170D01*
X356003Y325926D01*
X357095Y325783D01*
X362906D01*
X363997Y325926D01*
X365014Y326348D01*
X365887Y327018D01*
X366558Y327891D01*
X366979Y328908D01*
X367123Y330000D01*
X366979Y331091D01*
X366558Y332109D01*
X365887Y332982D01*
X365014Y333652D01*
X363997Y334073D01*
X362906Y334217D01*
X357095D01*
X356003Y334073D01*
X355416Y333830D01*
X355000Y334108D01*
Y345892D01*
X355416Y346170D01*
X356003Y345926D01*
X357095Y345783D01*
X362906D01*
X363997Y345926D01*
X365014Y346348D01*
X365887Y347018D01*
X366558Y347891D01*
X366979Y348908D01*
X367123Y350000D01*
X366979Y351092D01*
X366558Y352109D01*
X365887Y352982D01*
X365014Y353652D01*
X363997Y354074D01*
X362906Y354217D01*
X357095D01*
X356003Y354074D01*
X355416Y353830D01*
X355000Y354108D01*
Y355892D01*
X355416Y356170D01*
X356003Y355926D01*
X357095Y355783D01*
X362906D01*
X363997Y355926D01*
X365014Y356348D01*
X365887Y357018D01*
X366558Y357891D01*
X366979Y358909D01*
X367123Y360000D01*
X366979Y361091D01*
X366558Y362109D01*
X365887Y362982D01*
X365014Y363652D01*
X363997Y364073D01*
X362906Y364217D01*
X357095D01*
X356003Y364073D01*
X355416Y363830D01*
X355000Y364108D01*
Y365892D01*
X355416Y366170D01*
X356003Y365927D01*
X357095Y365783D01*
X362906D01*
X363997Y365927D01*
X365014Y366348D01*
X365887Y367018D01*
X366558Y367891D01*
X366979Y368909D01*
X367123Y370000D01*
X366979Y371092D01*
X366558Y372109D01*
X365887Y372982D01*
X365014Y373652D01*
X363997Y374074D01*
X362906Y374217D01*
X357095D01*
X356003Y374074D01*
X355416Y373830D01*
X355000Y374108D01*
Y400000D01*
X445000D01*
Y334108D01*
D02*
G37*
G36*
X434113Y227018D02*
X434986Y226348D01*
X436003Y225926D01*
X437094Y225783D01*
X442906D01*
X443997Y225926D01*
X444584Y226170D01*
X445000Y225892D01*
Y224108D01*
X444584Y223830D01*
X443997Y224074D01*
X442906Y224217D01*
X437094D01*
X436003Y224074D01*
X434986Y223652D01*
X434113Y222982D01*
X433518Y222208D01*
X430914D01*
X427939Y225183D01*
X427223Y225662D01*
X426378Y225830D01*
X408622D01*
X407777Y225662D01*
X407061Y225183D01*
X403439Y221561D01*
X402960Y220845D01*
X402792Y220000D01*
Y219419D01*
X401972Y218946D01*
X401054Y218028D01*
X400405Y216903D01*
X400069Y215649D01*
Y214351D01*
X400405Y213097D01*
X401054Y211972D01*
X401972Y211054D01*
X402932Y210500D01*
X402798Y210000D01*
X387202D01*
X387068Y210500D01*
X388028Y211054D01*
X388946Y211972D01*
X389595Y213097D01*
X389931Y214351D01*
Y215649D01*
X389686Y216564D01*
X400914Y227792D01*
X433518D01*
X434113Y227018D01*
D02*
G37*
G36*
X428439Y218439D02*
X429155Y217960D01*
X430000Y217792D01*
X433518D01*
X434113Y217018D01*
X434986Y216348D01*
X436003Y215927D01*
X437094Y215783D01*
X442906D01*
X443997Y215927D01*
X444584Y216170D01*
X445000Y215892D01*
Y210000D01*
X420403D01*
X419931Y210069D01*
X419931Y210500D01*
Y219931D01*
X410069D01*
Y217215D01*
X410005Y217177D01*
X409339Y217347D01*
X408946Y218028D01*
X408028Y218946D01*
X407775Y219092D01*
X407710Y219587D01*
X409537Y221414D01*
X425463D01*
X428439Y218439D01*
D02*
G37*
%LPC*%
G36*
X405000Y260154D02*
X403908Y260011D01*
X402891Y259589D01*
X402018Y258919D01*
X401348Y258046D01*
X400926Y257029D01*
X400783Y255937D01*
Y254063D01*
X400926Y252972D01*
X401348Y251954D01*
X402018Y251081D01*
X402891Y250411D01*
X403908Y249990D01*
X405000Y249846D01*
X406091Y249990D01*
X407109Y250411D01*
X407982Y251081D01*
X408652Y251954D01*
X409073Y252972D01*
X409217Y254063D01*
Y255937D01*
X409073Y257029D01*
X408652Y258046D01*
X407982Y258919D01*
X407109Y259589D01*
X406091Y260011D01*
X405000Y260154D01*
D02*
G37*
G36*
X395000D02*
X393909Y260011D01*
X392891Y259589D01*
X392018Y258919D01*
X391348Y258046D01*
X390927Y257029D01*
X390783Y255937D01*
Y254063D01*
X390927Y252972D01*
X391348Y251954D01*
X392018Y251081D01*
X392891Y250411D01*
X393909Y249990D01*
X395000Y249846D01*
X396092Y249990D01*
X397109Y250411D01*
X397982Y251081D01*
X398652Y251954D01*
X399074Y252972D01*
X399217Y254063D01*
Y255937D01*
X399074Y257029D01*
X398652Y258046D01*
X397982Y258919D01*
X397109Y259589D01*
X396092Y260011D01*
X395000Y260154D01*
D02*
G37*
G36*
X385000D02*
X383909Y260011D01*
X382891Y259589D01*
X382018Y258919D01*
X381348Y258046D01*
X380926Y257029D01*
X380783Y255937D01*
Y254063D01*
X380926Y252972D01*
X381348Y251954D01*
X382018Y251081D01*
X382891Y250411D01*
X383909Y249990D01*
X385000Y249846D01*
X386091Y249990D01*
X387109Y250411D01*
X387982Y251081D01*
X388652Y251954D01*
X389073Y252972D01*
X389217Y254063D01*
Y255937D01*
X389073Y257029D01*
X388652Y258046D01*
X387982Y258919D01*
X387109Y259589D01*
X386091Y260011D01*
X385000Y260154D01*
D02*
G37*
%LPD*%
D10*
X426378Y223622D02*
X430000Y220000D01*
X408622Y223622D02*
X426378D01*
X405000Y220000D02*
X408622Y223622D01*
X405000Y215000D02*
Y220000D01*
X430000D02*
X440000D01*
X385000Y215000D02*
X400000Y230000D01*
X440000D01*
D16*
X415000Y255000D02*
D03*
X405000D02*
D03*
X395000D02*
D03*
X385000D02*
D03*
D17*
X440000Y330000D02*
D03*
Y320000D02*
D03*
Y310000D02*
D03*
Y300000D02*
D03*
Y290000D02*
D03*
Y280000D02*
D03*
Y270000D02*
D03*
Y260000D02*
D03*
Y250000D02*
D03*
Y240000D02*
D03*
Y230000D02*
D03*
Y220000D02*
D03*
X360000D02*
D03*
Y230000D02*
D03*
Y240000D02*
D03*
Y250000D02*
D03*
Y260000D02*
D03*
Y270000D02*
D03*
Y280000D02*
D03*
Y290000D02*
D03*
Y300000D02*
D03*
Y310000D02*
D03*
Y320000D02*
D03*
Y330000D02*
D03*
Y340000D02*
D03*
Y350000D02*
D03*
Y360000D02*
D03*
Y370000D02*
D03*
D18*
X385000Y215000D02*
D03*
X395000D02*
D03*
X405000D02*
D03*
D19*
X415000D02*
D03*
D20*
X414370Y289370D02*
D03*
X387795Y233268D02*
D03*
X414173Y337402D02*
D03*
X397638Y268701D02*
D03*
X377946Y277740D02*
D03*
X371355Y215741D02*
D03*
X425000Y215000D02*
D03*
X435000Y345000D02*
D03*
X391339Y322047D02*
D03*
X430000Y380000D02*
D03*
X374016Y379921D02*
D03*
M02*
