G04*
G04 #@! TF.GenerationSoftware,Altium Limited,CircuitMaker,2.2.1 (2.2.1.6)*
G04*
G04 Layer_Color=128*
%FSLAX25Y25*%
%MOIN*%
G70*
G04*
G04 #@! TF.SameCoordinates,C44E2A56-7628-4A00-ACF1-40A52C7EA1B0*
G04*
G04*
G04 #@! TF.FilePolarity,Positive*
G04*
G01*
G75*
%ADD28C,0.00200*%
D28*
X413031Y255000D02*
X416968D01*
X415000Y253031D02*
Y256968D01*
X403031Y255000D02*
X406968D01*
X405000Y253031D02*
Y256968D01*
X393032Y255000D02*
X396969D01*
X395000Y253031D02*
Y256968D01*
X383032Y255000D02*
X386968D01*
X385000Y253031D02*
Y256968D01*
X437835Y330000D02*
X442165D01*
X440000Y327835D02*
Y332165D01*
X437835Y320000D02*
X442165D01*
X440000Y317835D02*
Y322165D01*
X437835Y310000D02*
X442165D01*
X440000Y307835D02*
Y312165D01*
X437835Y300000D02*
X442165D01*
X440000Y297835D02*
Y302165D01*
X437835Y290000D02*
X442165D01*
X440000Y287835D02*
Y292165D01*
X437835Y280000D02*
X442165D01*
X440000Y277835D02*
Y282165D01*
X437835Y270000D02*
X442165D01*
X440000Y267835D02*
Y272165D01*
X437835Y260000D02*
X442165D01*
X440000Y257835D02*
Y262165D01*
X437835Y250000D02*
X442165D01*
X440000Y247835D02*
Y252165D01*
X437835Y240000D02*
X442165D01*
X440000Y237835D02*
Y242165D01*
X437835Y230000D02*
X442165D01*
X440000Y227835D02*
Y232165D01*
X437835Y220000D02*
X442165D01*
X440000Y217835D02*
Y222165D01*
X357835Y220000D02*
X362165D01*
X360000Y217835D02*
Y222165D01*
X357835Y230000D02*
X362165D01*
X360000Y227835D02*
Y232165D01*
X357835Y240000D02*
X362165D01*
X360000Y237835D02*
Y242165D01*
X357835Y250000D02*
X362165D01*
X360000Y247835D02*
Y252165D01*
X357835Y260000D02*
X362165D01*
X360000Y257835D02*
Y262165D01*
X357835Y270000D02*
X362165D01*
X360000Y267835D02*
Y272165D01*
X357835Y280000D02*
X362165D01*
X360000Y277835D02*
Y282165D01*
X357835Y290000D02*
X362165D01*
X360000Y287835D02*
Y292165D01*
X357835Y300000D02*
X362165D01*
X360000Y297835D02*
Y302165D01*
X357835Y310000D02*
X362165D01*
X360000Y307835D02*
Y312165D01*
X357835Y320000D02*
X362165D01*
X360000Y317835D02*
Y322165D01*
X357835Y330000D02*
X362165D01*
X360000Y327835D02*
Y332165D01*
X357835Y340000D02*
X362165D01*
X360000Y337835D02*
Y342165D01*
X357835Y350000D02*
X362165D01*
X360000Y347835D02*
Y352165D01*
X357835Y360000D02*
X362165D01*
X360000Y357835D02*
Y362165D01*
X357835Y370000D02*
X362165D01*
X360000Y367835D02*
Y372165D01*
X383425Y215000D02*
X386575D01*
X385000Y213425D02*
Y216575D01*
X393425Y215000D02*
X396575D01*
X395000Y213425D02*
Y216575D01*
X403425Y215000D02*
X406575D01*
X405000Y213425D02*
Y216575D01*
X413425Y215000D02*
X416575D01*
X415000Y213425D02*
Y216575D01*
X412992Y289370D02*
X415748D01*
X414370Y287992D02*
Y290748D01*
X386417Y233268D02*
X389173D01*
X387795Y231890D02*
Y234646D01*
X412795Y337402D02*
X415551D01*
X414173Y336024D02*
Y338779D01*
X396260Y268701D02*
X399016D01*
X397638Y267323D02*
Y270079D01*
X376568Y277740D02*
X379324D01*
X377946Y276362D02*
Y279118D01*
X369977Y215741D02*
X372733D01*
X371355Y214363D02*
Y217119D01*
X423622Y215000D02*
X426378D01*
X425000Y213622D02*
Y216378D01*
X433622Y345000D02*
X436378D01*
X435000Y343622D02*
Y346378D01*
X389961Y322047D02*
X392717D01*
X391339Y320669D02*
Y323425D01*
X428622Y380000D02*
X431378D01*
X430000Y378622D02*
Y381378D01*
X372638Y379921D02*
X375394D01*
X374016Y378543D02*
Y381299D01*
M02*
