G04*
G04 #@! TF.GenerationSoftware,Altium Limited,CircuitMaker,2.2.1 (2.2.1.6)*
G04*
G04 Layer_Color=128*
%FSLAX25Y25*%
%MOIN*%
G70*
G04*
G04 #@! TF.SameCoordinates,1EE0AFE0-1AE0-4E79-8498-EBF67B735B77*
G04*
G04*
G04 #@! TF.FilePolarity,Positive*
G04*
G01*
G75*
%ADD36C,0.00200*%
D36*
X437835Y330000D02*
X442165D01*
X440000Y327835D02*
Y332165D01*
X437835Y320000D02*
X442165D01*
X440000Y317835D02*
Y322165D01*
X437835Y310000D02*
X442165D01*
X440000Y307835D02*
Y312165D01*
X437835Y300000D02*
X442165D01*
X440000Y297835D02*
Y302165D01*
X437835Y290000D02*
X442165D01*
X440000Y287835D02*
Y292165D01*
X437835Y280000D02*
X442165D01*
X440000Y277835D02*
Y282165D01*
X437835Y270000D02*
X442165D01*
X440000Y267835D02*
Y272165D01*
X437835Y260000D02*
X442165D01*
X440000Y257835D02*
Y262165D01*
X437835Y250000D02*
X442165D01*
X440000Y247835D02*
Y252165D01*
X437835Y240000D02*
X442165D01*
X440000Y237835D02*
Y242165D01*
X437835Y230000D02*
X442165D01*
X440000Y227835D02*
Y232165D01*
X437835Y220000D02*
X442165D01*
X440000Y217835D02*
Y222165D01*
X357835Y220000D02*
X362165D01*
X360000Y217835D02*
Y222165D01*
X357835Y230000D02*
X362165D01*
X360000Y227835D02*
Y232165D01*
X357835Y240000D02*
X362165D01*
X360000Y237835D02*
Y242165D01*
X357835Y250000D02*
X362165D01*
X360000Y247835D02*
Y252165D01*
X357835Y260000D02*
X362165D01*
X360000Y257835D02*
Y262165D01*
X357835Y270000D02*
X362165D01*
X360000Y267835D02*
Y272165D01*
X357835Y280000D02*
X362165D01*
X360000Y277835D02*
Y282165D01*
X357835Y290000D02*
X362165D01*
X360000Y287835D02*
Y292165D01*
X357835Y300000D02*
X362165D01*
X360000Y297835D02*
Y302165D01*
X357835Y310000D02*
X362165D01*
X360000Y307835D02*
Y312165D01*
X357835Y320000D02*
X362165D01*
X360000Y317835D02*
Y322165D01*
X357835Y330000D02*
X362165D01*
X360000Y327835D02*
Y332165D01*
X357835Y340000D02*
X362165D01*
X360000Y337835D02*
Y342165D01*
X357835Y350000D02*
X362165D01*
X360000Y347835D02*
Y352165D01*
X357835Y360000D02*
X362165D01*
X360000Y357835D02*
Y362165D01*
X357835Y370000D02*
X362165D01*
X360000Y367835D02*
Y372165D01*
X393425Y210000D02*
X396575D01*
X395000Y208425D02*
Y211575D01*
X413425Y210000D02*
X416575D01*
X415000Y208425D02*
Y211575D01*
X403425Y210000D02*
X406575D01*
X405000Y208425D02*
Y211575D01*
X383425Y210000D02*
X386575D01*
X385000Y208425D02*
Y211575D01*
X399016Y310236D02*
X401772D01*
X400394Y308858D02*
Y311614D01*
X393998Y330048D02*
X395966D01*
X394982Y329064D02*
Y331033D01*
X404016Y330000D02*
X405984D01*
X405000Y329016D02*
Y330984D01*
X404016Y340000D02*
X405984D01*
X405000Y339016D02*
Y340984D01*
X394016Y340000D02*
X395984D01*
X395000Y339016D02*
Y340984D01*
X399016Y335000D02*
X400984D01*
X400000Y334016D02*
Y335984D01*
X408858Y318858D02*
X410827D01*
X409842Y317874D02*
Y319843D01*
X403937Y318858D02*
X405905D01*
X404921Y317874D02*
Y319843D01*
X399016Y318858D02*
X400984D01*
X400000Y317874D02*
Y319843D01*
X394094Y318858D02*
X396063D01*
X395079Y317874D02*
Y319843D01*
X389173Y318858D02*
X391142D01*
X390158Y317874D02*
Y319843D01*
X383268Y324764D02*
X385236D01*
X384252Y323780D02*
Y325748D01*
X383268Y329685D02*
X385236D01*
X384252Y328701D02*
Y330669D01*
X383268Y334606D02*
X385236D01*
X384252Y333622D02*
Y335591D01*
X383268Y339528D02*
X385236D01*
X384252Y338543D02*
Y340512D01*
X383268Y344449D02*
X385236D01*
X384252Y343465D02*
Y345433D01*
X389173Y350748D02*
X391142D01*
X390158Y349764D02*
Y351732D01*
X394094Y350748D02*
X396063D01*
X395079Y349764D02*
Y351732D01*
X399016Y350748D02*
X400984D01*
X400000Y349764D02*
Y351732D01*
X403937Y350748D02*
X405905D01*
X404921Y349764D02*
Y351732D01*
X408858Y350748D02*
X410827D01*
X409842Y349764D02*
Y351732D01*
X415158Y344843D02*
X417126D01*
X416142Y343858D02*
Y345827D01*
X415158Y339921D02*
X417126D01*
X416142Y338937D02*
Y340905D01*
X415158Y335000D02*
X417126D01*
X416142Y334016D02*
Y335984D01*
X415158Y330079D02*
X417126D01*
X416142Y329095D02*
Y331063D01*
X415158Y325157D02*
X417126D01*
X416142Y324173D02*
Y326142D01*
X395866Y259842D02*
X398622D01*
X397244Y258465D02*
Y261221D01*
X376575Y243701D02*
X379331D01*
X377953Y242323D02*
Y245079D01*
X376568Y277740D02*
X379324D01*
X377946Y276362D02*
Y279118D01*
X396260Y229921D02*
X399016D01*
X397638Y228543D02*
Y231299D01*
X368622Y210000D02*
X371378D01*
X370000Y208622D02*
Y211378D01*
X428622Y210000D02*
X431378D01*
X430000Y208622D02*
Y211378D01*
X433622Y345000D02*
X436378D01*
X435000Y343622D02*
Y346378D01*
X398622Y370000D02*
X401378D01*
X400000Y368622D02*
Y371378D01*
X428622Y380000D02*
X431378D01*
X430000Y378622D02*
Y381378D01*
X373622Y380000D02*
X376378D01*
X375000Y378622D02*
Y381378D01*
X413583Y281102D02*
X416339D01*
X414961Y279724D02*
Y282480D01*
X421850Y285039D02*
X424606D01*
X423228Y283661D02*
Y286417D01*
M02*
