G04*
G04 #@! TF.GenerationSoftware,Altium Limited,CircuitMaker,2.2.1 (2.2.1.6)*
G04*
G04 Layer_Color=15132400*
%FSLAX25Y25*%
%MOIN*%
G70*
G04*
G04 #@! TF.SameCoordinates,1EE0AFE0-1AE0-4E79-8498-EBF67B735B77*
G04*
G04*
G04 #@! TF.FilePolarity,Positive*
G04*
G01*
G75*
%ADD10C,0.01968*%
%ADD11C,0.01000*%
D10*
X370000Y400000D02*
X440000D01*
X370000Y200000D02*
X430000D01*
X360000Y400000D02*
X370000D01*
X355000Y395000D02*
X360000Y400000D01*
X355000Y385000D02*
Y395000D01*
Y380000D02*
Y385000D01*
X440000Y400000D02*
X445000Y395000D01*
Y340000D02*
Y395000D01*
X360000Y200000D02*
X370000D01*
X355000Y205000D02*
X360000Y200000D01*
X355000Y205000D02*
Y210000D01*
X430000Y200000D02*
X440000D01*
X445000Y205000D01*
Y210000D01*
X376969Y361968D02*
Y377711D01*
X384840D01*
X387464Y375088D01*
Y369840D01*
X384840Y367216D01*
X376969D01*
X392711Y377711D02*
Y361968D01*
Y369840D01*
X403207D01*
Y377711D01*
Y361968D01*
X408454D02*
Y377711D01*
X418950Y361968D01*
Y377711D01*
X434693Y361968D02*
X424197D01*
X434693Y372464D01*
Y375088D01*
X432069Y377711D01*
X426821D01*
X424197Y375088D01*
D11*
X393502Y387999D02*
X395501D01*
X394502D01*
Y382001D01*
X393502D01*
X395501D01*
X402499Y386999D02*
X401500Y387999D01*
X399500D01*
X398500Y386999D01*
Y383001D01*
X399500Y382001D01*
X401500D01*
X402499Y383001D01*
X404498Y382001D02*
X406498D01*
X405498D01*
Y387999D01*
X404498Y386999D01*
M02*
