G04*
G04 #@! TF.GenerationSoftware,Altium Limited,CircuitMaker,2.2.1 (2.2.1.6)*
G04*
G04 Layer_Color=13813960*
%FSLAX25Y25*%
%MOIN*%
G70*
G04*
G04 #@! TF.SameCoordinates,1EE0AFE0-1AE0-4E79-8498-EBF67B735B77*
G04*
G04*
G04 #@! TF.FilePolarity,Positive*
G04*
G01*
G75*
%ADD11C,0.01000*%
%ADD33C,0.02000*%
%ADD34C,0.00787*%
%ADD35C,0.00591*%
D11*
X396900Y363098D02*
X394901D01*
X395900D01*
Y357100D01*
X396900D01*
X394901D01*
X387903Y362098D02*
X388903Y363098D01*
X390902D01*
X391902Y362098D01*
Y358100D01*
X390902Y357100D01*
X388903D01*
X387903Y358100D01*
X381905Y357100D02*
X385904D01*
X381905Y361099D01*
Y362098D01*
X382905Y363098D01*
X384904D01*
X385904Y362098D01*
X429998Y289206D02*
Y295204D01*
X426999D01*
X426000Y294204D01*
Y292205D01*
X426999Y291205D01*
X429998D01*
X427999D02*
X426000Y289206D01*
X420002D02*
X424000D01*
X420002Y293204D01*
Y294204D01*
X421001Y295204D01*
X423001D01*
X424000Y294204D01*
X428999Y299206D02*
Y305204D01*
X426000D01*
X425000Y304204D01*
Y302205D01*
X426000Y301205D01*
X428999D01*
X426999D02*
X425000Y299206D01*
X423001D02*
X421001D01*
X422001D01*
Y305204D01*
X423001Y304204D01*
X424200Y231098D02*
X422201D01*
X423200D01*
Y225100D01*
X424200D01*
X422201D01*
X415203Y230098D02*
X416203Y231098D01*
X418202D01*
X419202Y230098D01*
Y226100D01*
X418202Y225100D01*
X416203D01*
X415203Y226100D01*
X413204Y230098D02*
X412204Y231098D01*
X410205D01*
X409205Y230098D01*
Y229099D01*
X410205Y228099D01*
X411204D01*
X410205D01*
X409205Y227099D01*
Y226100D01*
X410205Y225100D01*
X412204D01*
X413204Y226100D01*
X376000Y304204D02*
X376999Y305204D01*
X378999D01*
X379998Y304204D01*
Y300205D01*
X378999Y299206D01*
X376999D01*
X376000Y300205D01*
X370002Y299206D02*
X374000D01*
X370002Y303204D01*
Y304204D01*
X371001Y305204D01*
X373001D01*
X374000Y304204D01*
X375000Y294204D02*
X376000Y295204D01*
X377999D01*
X378999Y294204D01*
Y290205D01*
X377999Y289206D01*
X376000D01*
X375000Y290205D01*
X373001Y289206D02*
X371001D01*
X372001D01*
Y295204D01*
X373001Y294204D01*
D33*
X384500Y351000D02*
G03*
X384500Y351000I-1000J0D01*
G01*
D34*
X409606Y289941D02*
X410394D01*
X409606Y294468D02*
X410394D01*
X409606Y299941D02*
X410394D01*
X409606Y304468D02*
X410394D01*
X377500Y202945D02*
X424000D01*
Y190445D02*
Y220945D01*
X377500D02*
X424000D01*
X377500Y190445D02*
X424000D01*
X377500D02*
Y220945D01*
D35*
X389500Y304705D02*
X390500D01*
X389500Y299705D02*
X390500D01*
X389500Y294705D02*
X390500D01*
X389500Y289705D02*
X390500D01*
M02*
