G04*
G04 #@! TF.GenerationSoftware,Altium Limited,CircuitMaker,2.2.1 (2.2.1.6)*
G04*
G04 Layer_Color=20142*
%FSLAX25Y25*%
%MOIN*%
G70*
G04*
G04 #@! TF.SameCoordinates,1EE0AFE0-1AE0-4E79-8498-EBF67B735B77*
G04*
G04*
G04 #@! TF.FilePolarity,Negative*
G04*
G01*
G75*
G04:AMPARAMS|DCode=12|XSize=39.53mil|YSize=67.09mil|CornerRadius=11.89mil|HoleSize=0mil|Usage=FLASHONLY|Rotation=180.000|XOffset=0mil|YOffset=0mil|HoleType=Round|Shape=RoundedRectangle|*
%AMROUNDEDRECTD12*
21,1,0.03953,0.04331,0,0,180.0*
21,1,0.01575,0.06709,0,0,180.0*
1,1,0.02378,-0.00787,0.02165*
1,1,0.02378,0.00787,0.02165*
1,1,0.02378,0.00787,-0.02165*
1,1,0.02378,-0.00787,-0.02165*
%
%ADD12ROUNDEDRECTD12*%
%ADD13R,0.03953X0.06709*%
%ADD14R,0.19701X0.19701*%
%ADD15R,0.06709X0.03953*%
%ADD16O,0.12614X0.06803*%
%ADD17C,0.08303*%
%ADD18R,0.08303X0.08303*%
%ADD19C,0.02772*%
D12*
X390158Y350748D02*
D03*
D13*
X395079D02*
D03*
X400000D02*
D03*
X404921D02*
D03*
X409842D02*
D03*
Y318858D02*
D03*
X404921D02*
D03*
X400000D02*
D03*
X395079D02*
D03*
X390158D02*
D03*
D14*
X400000Y335000D02*
D03*
D15*
X416142Y344843D02*
D03*
Y339921D02*
D03*
Y335000D02*
D03*
Y330079D02*
D03*
Y325157D02*
D03*
X384252Y324764D02*
D03*
Y329685D02*
D03*
Y334606D02*
D03*
Y339528D02*
D03*
Y344449D02*
D03*
D16*
X440000Y330000D02*
D03*
Y320000D02*
D03*
Y310000D02*
D03*
Y300000D02*
D03*
Y290000D02*
D03*
Y280000D02*
D03*
Y270000D02*
D03*
Y260000D02*
D03*
Y250000D02*
D03*
Y240000D02*
D03*
Y230000D02*
D03*
Y220000D02*
D03*
X360000D02*
D03*
Y230000D02*
D03*
Y240000D02*
D03*
Y250000D02*
D03*
Y260000D02*
D03*
Y270000D02*
D03*
Y280000D02*
D03*
Y290000D02*
D03*
Y300000D02*
D03*
Y310000D02*
D03*
Y320000D02*
D03*
Y330000D02*
D03*
Y340000D02*
D03*
Y350000D02*
D03*
Y360000D02*
D03*
Y370000D02*
D03*
D17*
X395000Y210000D02*
D03*
X405000D02*
D03*
X385000D02*
D03*
D18*
X415000D02*
D03*
D19*
X394982Y330048D02*
D03*
X405000Y330000D02*
D03*
Y340000D02*
D03*
X395000D02*
D03*
X400000Y335000D02*
D03*
X409842Y318858D02*
D03*
X404921D02*
D03*
X400000D02*
D03*
X395079D02*
D03*
X390158D02*
D03*
X384252Y324764D02*
D03*
Y329685D02*
D03*
Y334606D02*
D03*
Y339528D02*
D03*
Y344449D02*
D03*
X390158Y350748D02*
D03*
X395079D02*
D03*
X400000D02*
D03*
X404921D02*
D03*
X409842D02*
D03*
X416142Y344843D02*
D03*
Y339921D02*
D03*
Y335000D02*
D03*
Y330079D02*
D03*
Y325157D02*
D03*
M02*
