M48
;Layer_Color=6321
;FILE_FORMAT=2:5
INCH,LZ
;TYPE=PLATED
T1F00S00C0.01968
T2F00S00C0.02756
T3F00S00C0.03150
T4F00S00C0.04331
%
T01
X0384252Y0324764
Y0329685
Y0334606
Y0339528
Y0344449
X0390158Y0350748
X0395079
X04
X0404921
X0409842
X0416142Y0344843
Y0339921
Y0335
Y0330079
Y0325157
X0409842Y0318858
X0404921
X04
X0395079
X0390158
X0394982Y0330048
X0395Y034
X0405
Y033
X04Y0335
T02
X037Y021
X0377953Y0243701
X0397638Y0229921
X0397244Y0259842
X0377946Y027774
X0414961Y0281102
X0423228Y0285039
X0400394Y0310236
X043Y021
X0435Y0345
X043Y038
X04Y037
X0375Y038
T03
X0385Y021
X0395
X0405
X0415
T04
X036Y022
Y023
Y024
Y025
Y026
Y027
Y028
Y029
Y03
Y031
X044
Y03
Y029
Y028
Y027
Y026
Y025
Y024
Y023
Y022
Y032
Y033
X036
Y032
Y034
Y035
Y036
Y037
M30
